<mxfile host="app.diagrams.net" modified="2023-09-16T08:30:05.285Z" agent="Mozilla/5.0 (Windows NT 10.0; Win64; x64) AppleWebKit/537.36 (KHTML, like Gecko) Chrome/114.0.0.0 YaBrowser/23.7.5.704 Yowser/2.5 Safari/537.36" version="21.7.5" etag="DlrlDHLJOgWymGs-_Lv9" type="github">
  <diagram name="Страница — 1" id="PU2kjsf3ZB2TJDBGwNyj">
    <mxGraphModel>
      <root>
        <mxCell id="0" />
        <mxCell id="1" parent="0" />
      </root>
    </mxGraphModel>
  </diagram>
</mxfile>
